HIERARCHY
ROOT Hips
{
	OFFSET 0.000000 0.000000 0.000000
	CHANNELS 6 Xposition Yposition Zposition Xrotation Yrotation Zrotation
	JOINT LeftUpLeg_virtual
	{
		OFFSET 0.000000 0.000000 0.000000
		CHANNELS 3 Xrotation Yrotation Zrotation
		JOINT LeftUpLeg
		{
			OFFSET 11.394100 -6.187798 -0.413800
			CHANNELS 3 Xrotation Yrotation Zrotation
			JOINT LeftLeg
			{
				OFFSET 0.430247 -32.302673 3.732800
				CHANNELS 3 Xrotation Yrotation Zrotation
				JOINT LeftFoot
				{
					OFFSET -0.430247 -48.264931 -6.423300
					CHANNELS 3 Xrotation Yrotation Zrotation
					JOINT LeftToeBase
					{
						OFFSET 4.230900 -16.068199 23.438400
						CHANNELS 3 Xrotation Yrotation Zrotation
						JOINT LeftToe_End
						{
							OFFSET 4.510700 0.695400 19.974600
							CHANNELS 3 Xrotation Yrotation Zrotation
							End Site
							{
								OFFSET 0 0 0
							}
						}
					}
				}
			}
		}
	}
	JOINT RightUpLeg_virtual
	{
		OFFSET 0.000000 0.000000 0.000000
		CHANNELS 3 Xrotation Yrotation Zrotation
		JOINT RightUpLeg
		{
			OFFSET -11.333700 -6.187798 -0.413800
			CHANNELS 3 Xrotation Yrotation Zrotation
			JOINT RightLeg
			{
				OFFSET -0.430392 -32.302628 3.733000
				CHANNELS 3 Xrotation Yrotation Zrotation
				JOINT RightFoot
				{
					OFFSET 0.430392 -48.264973 -6.423500
					CHANNELS 3 Xrotation Yrotation Zrotation
					JOINT RightToeBase
					{
						OFFSET -4.230900 -16.068199 23.438400
						CHANNELS 3 Xrotation Yrotation Zrotation
						JOINT RightToe_End
						{
							OFFSET -4.510700 0.695400 19.974600
							CHANNELS 3 Xrotation Yrotation Zrotation
							End Site
							{
								OFFSET 0 0 0
							}
						}
					}
				}
			}
		}
	}
	JOINT Spine_virtual
	{
		OFFSET 0.000000 0.000000 0.000000
		CHANNELS 3 Xrotation Yrotation Zrotation
		JOINT Spine
		{
			OFFSET -0.002400 12.777504 0.315300
			CHANNELS 3 Xrotation Yrotation Zrotation
			JOINT Spine1
			{
				OFFSET -0.002067 5.816869 0.032633
				CHANNELS 3 Xrotation Yrotation Zrotation
				JOINT Spine1_split
				{
					OFFSET -0.002067 5.816869 0.032633
					CHANNELS 3 Xrotation Yrotation Zrotation
					JOINT Spine2
					{
						OFFSET -0.002067 5.816869 0.032633
						CHANNELS 3 Xrotation Yrotation Zrotation
						JOINT Neck_virtual
						{
							OFFSET 0.000000 0.000000 0.000000
							CHANNELS 3 Xrotation Yrotation Zrotation
							JOINT Neck
							{
								OFFSET -0.003700 21.199493 -0.826900
								CHANNELS 3 Xrotation Yrotation Zrotation
								JOINT Head
								{
									OFFSET 0.000000 20.442200 4.834800
									CHANNELS 3 Xrotation Yrotation Zrotation
									JOINT HeadTop_End
									{
										OFFSET 0.000000 34.668396 4.968400
										CHANNELS 3 Xrotation Yrotation Zrotation
										End Site
										{
											OFFSET 0 0 0
										}
									}
								}
							}
						}
						JOINT LeftShoulder_virtual
						{
							OFFSET 0.000000 0.000000 0.000000
							CHANNELS 3 Xrotation Yrotation Zrotation
							JOINT LeftShoulder
							{
								OFFSET 3.288150 8.794197 -1.372250
								CHANNELS 3 Xrotation Yrotation Zrotation
								JOINT LeftShoulder_split
								{
									OFFSET 3.288150 8.794197 -1.372250
									CHANNELS 3 Xrotation Yrotation Zrotation
									JOINT LeftArm
									{
										OFFSET 11.953299 -2.279007 -0.146200
										CHANNELS 3 Xrotation Yrotation Zrotation
										JOINT LeftForeArm
										{
											OFFSET 18.448900 0.000000 0.000000
											CHANNELS 3 Xrotation Yrotation Zrotation
											JOINT LeftHand
											{
												OFFSET 29.527798 0.000000 0.000000
												CHANNELS 3 Xrotation Yrotation Zrotation
												End Site
												{
													OFFSET 0 0 0
												}
											}
										}
									}
								}
							}
						}
						JOINT RightShoulder_virtual
						{
							OFFSET 0.000000 0.000000 0.000000
							CHANNELS 3 Xrotation Yrotation Zrotation
							JOINT RightShoulder
							{
								OFFSET -3.249400 8.794197 -1.372250
								CHANNELS 3 Xrotation Yrotation Zrotation
								JOINT RightShoulder_split
								{
									OFFSET -3.249400 8.794197 -1.372250
									CHANNELS 3 Xrotation Yrotation Zrotation
									JOINT RightArm
									{
										OFFSET -11.953299 -2.279007 -0.146200
										CHANNELS 3 Xrotation Yrotation Zrotation
										JOINT RightForeArm
										{
											OFFSET -18.448900 0.000000 0.000000
											CHANNELS 3 Xrotation Yrotation Zrotation
											JOINT RightHand
											{
												OFFSET -29.527802 0.000000 0.000000
												CHANNELS 3 Xrotation Yrotation Zrotation
												End Site
												{
													OFFSET 0 0 0
												}
											}
										}
									}
								}
							}
						}
					}
				}
			}
		}
	}
}
MOTION
Frames: 9
Frame Time: 0.03333333
-2.223827 99.372147 -4.237617 0.000000 0.000000 0.000000 1.850537 6.153432 5.554398 -14.087129 4.789600 4.000224 13.816983 6.017647 0.810572 0.721917 0.204414 -5.629603 0.500645 0.070941 -2.334085 0.000000 0.000000 0.000000 2.393272 5.632454 5.709750 -22.937652 -9.469718 -14.024567 33.399847 -0.690522 -2.699993 -12.821771 -8.931629 6.384778 -2.611246 0.128626 -0.313515 0.000000 0.000000 0.000000 2.745777 6.102975 5.299128 8.066514 -0.990267 7.696290 2.261509 -0.187361 1.562741 0.798717 -0.728375 0.457072 0.000000 0.000000 0.000000 1.429171 -0.174103 1.323845 0.623314 0.448804 2.691896 -4.770961 -13.507338 -1.152465 0.000000 0.000000 0.000000 1.889503 -0.245045 1.363749 1.100898 -4.992959 -12.059537 0.337974 0.075228 -1.358850 6.797316 -7.360757 -40.900590 0.182205 -68.791152 0.072731 0.000000 0.000000 0.000000 2.061812 -0.091951 1.245647 1.271413 16.552361 13.573916 -1.175345 1.199755 0.143731 -27.519618 13.955969 60.784920 -135.574310 88.454269 135.092235 0.000000 0.000000 0.000000 
-2.215656 99.364410 -4.151684 0.000000 0.000000 0.000000 1.833569 5.912585 5.581828 -13.858658 4.784850 4.023927 13.766522 6.163612 0.840088 0.578502 0.159360 -5.647410 0.539829 0.076770 -2.350608 0.000000 0.000000 0.000000 2.369554 5.369152 5.739830 -22.726146 -8.901216 -13.849213 33.353757 -1.012114 -2.683176 -12.931255 -9.021654 6.454143 -2.555821 0.121521 -0.341605 0.000000 0.000000 0.000000 2.748772 5.980269 5.311056 8.008227 -1.305139 7.721650 2.228922 -0.226375 1.558926 0.809497 -0.826219 0.421607 0.000000 0.000000 0.000000 1.430567 -0.211463 1.307452 0.612065 0.632272 2.539179 -5.481527 -13.245636 -1.375781 0.000000 0.000000 0.000000 1.856117 -0.274405 1.379614 1.045218 -5.117050 -12.197354 0.452827 0.297437 -1.433779 7.086327 -7.660125 -40.858089 0.229125 -68.974556 0.057287 0.000000 0.000000 0.000000 2.035038 -0.163517 1.244996 1.357532 17.037854 13.741629 -1.300022 1.377860 0.192884 -21.990310 16.543627 60.472787 -170.407291 84.223486 169.884235 0.000000 0.000000 0.000000 
-2.173649 99.362968 -4.089211 0.000000 0.000000 0.000000 1.773693 5.652006 5.586487 -13.605906 4.806390 4.042586 13.743898 6.353361 0.858632 0.405183 0.088564 -5.641896 0.599972 0.079581 -2.359461 0.000000 0.000000 0.000000 2.299346 5.094535 5.743628 -22.436953 -8.319634 -13.675511 33.247746 -1.338033 -2.661403 -12.963670 -9.103683 6.531120 -2.495270 0.112385 -0.367895 0.000000 0.000000 0.000000 2.732813 5.789702 5.297580 7.958098 -1.647717 7.722016 2.189606 -0.307601 1.549786 0.832396 -0.881956 0.381485 0.000000 0.000000 0.000000 1.421270 -0.283851 1.297213 0.618797 0.821913 2.357598 -6.184303 -12.906352 -1.658012 0.000000 0.000000 0.000000 1.822510 -0.337399 1.395868 0.990753 -5.269377 -12.262025 0.547867 0.554519 -1.443339 7.473054 -8.105464 -40.778569 0.279810 -69.077965 0.029250 0.000000 0.000000 0.000000 2.005493 -0.268270 1.248790 1.471386 17.595621 13.730956 -1.385807 1.480248 0.314395 -16.861256 20.163941 59.567821 -174.717332 80.858061 174.162106 0.000000 0.000000 0.000000 
-2.099672 99.373672 -4.040821 0.000000 0.000000 0.000000 1.660602 5.360826 5.571118 -13.311445 4.845810 4.048823 13.743333 6.584746 0.872475 0.199480 0.007000 -5.628588 0.674227 0.081063 -2.356704 0.000000 0.000000 0.000000 2.171266 4.795045 5.724950 -22.089269 -7.745281 -13.511281 33.098352 -1.647205 -2.635588 -12.887449 -9.169024 6.636477 -2.485700 0.101022 -0.391903 0.000000 0.000000 0.000000 2.675222 5.498780 5.261284 7.910661 -1.993011 7.673467 2.146188 -0.413240 1.530080 0.852102 -0.911974 0.366677 0.000000 0.000000 0.000000 1.405271 -0.375134 1.282683 0.643413 1.002135 2.145742 -6.822528 -12.523682 -1.977937 0.000000 0.000000 0.000000 1.792678 -0.420706 1.406510 0.939803 -5.421565 -12.232053 0.619418 0.852840 -1.410781 7.903964 -8.674466 -40.683387 0.369286 -69.141698 0.026390 0.000000 0.000000 0.000000 1.972420 -0.390855 1.247624 1.603250 18.281133 13.574254 -1.505744 1.599676 0.393753 -12.134625 24.746086 57.781973 -176.062319 78.773091 175.485059 0.000000 0.000000 0.000000 
-1.999227 99.394577 -4.002663 0.000000 0.000000 0.000000 1.489918 5.032909 5.535715 -12.952173 4.907518 4.043296 13.745564 6.862896 0.884994 -0.041617 -0.063275 -5.608610 0.749384 0.081395 -2.338039 0.000000 0.000000 0.000000 1.986709 4.453996 5.684443 -21.707892 -7.186515 -13.355006 32.912079 -1.925375 -2.609591 -12.710196 -9.211402 6.754389 -2.521365 0.087646 -0.408504 0.000000 0.000000 0.000000 2.556301 5.105823 5.207416 7.858945 -2.307588 7.556013 2.109502 -0.522184 1.491703 0.811789 -0.916062 0.373686 0.000000 0.000000 0.000000 1.383589 -0.458716 1.253693 0.698273 1.167283 1.908282 -7.357397 -12.175920 -2.307437 0.000000 0.000000 0.000000 1.772751 -0.503958 1.406036 0.889388 -5.564522 -12.097488 0.690235 1.141149 -1.341362 8.278639 -9.310683 -40.600318 0.485385 -69.218121 0.048728 0.000000 0.000000 0.000000 1.917923 -0.509521 1.233484 1.742801 19.123801 13.287109 -1.523872 1.725191 0.335452 -7.743319 30.091942 54.855281 -176.189634 77.867059 175.590694 0.000000 0.000000 0.000000 
-1.878396 99.425369 -3.968201 0.000000 0.000000 0.000000 1.269550 4.649764 5.476319 -12.511065 5.006130 4.029613 13.738295 7.193620 0.896034 -0.326894 -0.104549 -5.576303 0.821239 0.081692 -2.303093 0.000000 0.000000 0.000000 1.749172 4.060052 5.620079 -21.311804 -6.643991 -13.202069 32.688196 -2.165386 -2.586601 -12.465861 -9.229157 6.851627 -2.579866 0.072533 -0.412639 0.000000 0.000000 0.000000 2.372147 4.634726 5.132249 7.796644 -2.557105 7.358191 2.079450 -0.609869 1.427767 0.715008 -0.996513 0.411224 0.000000 0.000000 0.000000 1.357198 -0.512055 1.201701 0.783709 1.302430 1.662441 -7.778495 -11.939462 -2.625796 0.000000 0.000000 0.000000 1.754109 -0.565550 1.388724 0.836449 -5.705149 -11.870096 0.785265 1.433299 -1.258127 8.483469 -9.979236 -40.571344 0.617378 -69.348365 0.096878 0.000000 0.000000 0.000000 1.835165 -0.609691 1.196874 1.887624 20.132235 12.913494 -1.492911 1.869215 0.219278 -3.489815 35.837804 50.647847 -175.577307 77.954793 174.954790 0.000000 0.000000 0.000000 
-1.744420 99.464981 -3.941437 0.000000 0.000000 0.000000 1.016378 4.186487 5.381964 -11.993252 5.156405 4.026129 13.725498 7.577312 0.905653 -0.667769 -0.105029 -5.525953 0.906861 0.079946 -2.260029 0.000000 0.000000 0.000000 1.490149 3.610543 5.522958 -20.935334 -6.103708 -13.045388 32.431166 -2.362418 -2.567243 -12.163110 -9.221594 6.910572 -2.646074 0.056740 -0.405800 0.000000 0.000000 0.000000 2.130159 4.108113 5.026960 7.721411 -2.718689 7.076789 2.059591 -0.665661 1.336815 0.647236 -1.178716 0.448088 0.000000 0.000000 0.000000 1.333469 -0.525630 1.125472 0.860905 1.407191 1.431066 -8.103748 -11.895303 -2.909932 0.000000 0.000000 0.000000 1.723121 -0.594389 1.348196 0.776947 -5.858596 -11.591308 0.899609 1.656432 -1.137986 8.450235 -10.641534 -40.622871 0.717550 -69.532180 0.137517 0.000000 0.000000 0.000000 1.720785 -0.681354 1.138191 2.030622 21.291284 12.534193 -1.470957 1.991075 0.126077 0.845987 41.596433 45.242019 -174.355755 78.807679 173.718389 0.000000 0.000000 0.000000 
-1.600865 99.508972 -3.927120 0.000000 0.000000 0.000000 0.758096 3.633302 5.235072 -11.423423 5.365275 4.054958 13.725458 8.001573 0.909180 -1.090052 -0.063006 -5.455842 1.015193 0.077634 -2.215477 0.000000 0.000000 0.000000 1.231993 3.097481 5.377586 -20.607801 -5.561564 -12.875123 32.139701 -2.506598 -2.550853 -11.769407 -9.185794 6.941931 -2.715881 0.041723 -0.396453 0.000000 0.000000 0.000000 1.860039 3.549559 4.877516 7.638961 -2.778608 6.728696 2.052017 -0.687230 1.224990 0.656154 -1.396583 0.486911 0.000000 0.000000 0.000000 1.309570 -0.500779 1.034772 0.922306 1.464292 1.233144 -8.362661 -12.086012 -3.152536 0.000000 0.000000 0.000000 1.677884 -0.586888 1.287068 0.711219 -6.046055 -11.298331 1.022554 1.827566 -1.008687 8.188107 -11.292638 -40.750486 0.745309 -69.712701 0.140826 0.000000 0.000000 0.000000 1.581674 -0.720593 1.065667 2.168933 22.574629 12.196786 -1.442228 2.063223 0.129377 5.430798 46.934833 38.815408 -172.393346 80.307582 171.763603 0.000000 0.000000 0.000000 
-1.450380 99.550613 -3.935326 0.000000 0.000000 0.000000 0.518893 2.981161 5.019515 -10.856820 5.624982 4.141565 13.778214 8.451034 0.903289 -1.610083 0.017424 -5.378742 1.146885 0.075834 -2.178390 0.000000 0.000000 0.000000 1.002153 2.512174 5.168380 -20.352789 -5.013075 -12.672514 31.803847 -2.578145 -2.538592 -11.269926 -9.113860 6.980639 -2.809575 0.029277 -0.395100 0.000000 0.000000 0.000000 1.595116 2.974483 4.664161 7.553085 -2.736525 6.339253 2.049183 -0.678969 1.102762 0.700822 -1.614124 0.516644 0.000000 0.000000 0.000000 1.286599 -0.451735 0.941127 0.942005 1.466007 1.095097 -8.571911 -12.513764 -3.360279 0.000000 0.000000 0.000000 1.611365 -0.549060 1.214050 0.639791 -6.272287 -11.019047 1.198179 1.913685 -0.867621 7.781966 -11.932087 -40.920592 0.703863 -69.826096 0.112652 0.000000 0.000000 0.000000 1.432474 -0.732949 0.990600 2.295049 23.920745 11.928788 -1.392797 2.090311 0.234451 10.253798 51.574390 31.695302 -169.254396 82.411205 168.658408 0.000000 0.000000 0.000000 
